/* XPM */
static char * icon_xpm[] = {
"36 36 90 1",
" 	c #272931",
".	c #452D1D",
"+	c #3E3219",
"@	c #30333A",
"#	c #3B341A",
"$	c #333D1D",
"%	c #2F401A",
"&	c #3B3B1F",
"*	c #3C4148",
"=	c #693424",
"-	c #5E3A23",
";	c #6D3225",
">	c #723026",
",	c #7B2C23",
"'	c #5B3D24",
")	c #633924",
"!	c #673724",
"~	c #583F24",
"{	c #832925",
"]	c #772F26",
"^	c #554124",
"/	c #524325",
"(	c #4F4626",
"_	c #4B4927",
":	c #4A4B22",
"<	c #902725",
"[	c #424F24",
"}	c #474D23",
"|	c #9A2323",
"1	c #A22126",
"2	c #455126",
"3	c #3F5525",
"4	c #484A52",
"5	c #B01E24",
"6	c #6A442A",
"7	c #C31825",
"8	c #46583C",
"9	c #D41624",
"0	c #BD2424",
"a	c #6E4C2E",
"b	c #C92724",
"c	c #655445",
"d	c #F01623",
"e	c #855130",
"f	c #924B2D",
"g	c #83582F",
"h	c #B34228",
"i	c #7A5D34",
"j	c #865449",
"k	c #7F594B",
"l	c #6F624C",
"m	c #686748",
"n	c #94504D",
"o	c #795E4C",
"p	c #9F4D4B",
"q	c #626F4D",
"r	c #666770",
"s	c #69676B",
"t	c #956033",
"u	c #7E6D3D",
"v	c #6D6F7A",
"w	c #716F73",
"x	c #717954",
"y	c #B5602D",
"z	c #927238",
"A	c #F04724",
"B	c #82785B",
"C	c #757884",
"D	c #89786E",
"E	c #A67436",
"F	c #8E7F3F",
"G	c #7E808D",
"H	c #8E8945",
"I	c #848896",
"J	c #A38C3D",
"K	c #D6792A",
"L	c #B88931",
"M	c #CA852B",
"N	c #959681",
"O	c #B79335",
"P	c #9094A3",
"Q	c #9BA04D",
"R	c #9E9B68",
"S	c #B4A538",
"T	c #B1AF94",
"U	c #BDC140",
"V	c #ACC860",
"W	c #B9D384",
"X	c #BEEC82",
"Y	c #BFF373",
"PPIIIIIIIGIIIGIIIIIGIIGIIIIGIIIIIGIv",
"Ir44444444444444444444*444*444444*r4",
"I4%%%%%%%$$$$$$$$$$8&$$$$$%%%%%%%8v*",
"I4%3333[2[22[}}}}}}Tq}}mx22223333qG4",
"I4%3333222}}}_}}$}::}}}mx}}2}2333qG*",
"I4%33}}[}}_____________:__}}}2}33qG*",
"I4$222_}_____((((((((((_____}}}23qG*",
"I4$22}}____(((//////////((___}_:}qG4",
"I4$}_____((///^^^^/^/^/^//(((__::mC*",
"G4Nx__((/^^^^^~^^^~^~~~^^///((__}TC4",
"G*&___((//^~~~''''''''~~~~////((:xG*",
"I4&_(/^^^~~'-'------''--'~~~^//((lC*",
"G*&((/^^~''.)-))))ua))----'~~^//(lC*",
"C*+/^/^~''))-)))=)Xu=)=))-'''^~/(lw@",
"G*#/^~'---)6u)====)!==aHaHa'-'~~/lG*",
"C*+/~'-.)))HHi=;;;;;;;6iaaa)-''~~lw@",
"C*.^~'--)==!u>>>>]>>>]>>===)))''^lw*",
"C*.~''))=);;]]>]]]]]]]]>>;===))''oC@",
"C*+'--));;;>>]{{]{{]zJ]eF>;==6QQ~ov@",
"v*.~Xc===>]]]Fg{{{{fJQ{]z>>;=)RF'oC@",
"v*.-u)==;>]{,JJ<<<<<f{tf{]>;Haa)'ov@",
"C@.-)==;>]]]{f<<<<<<|<Etzz]gHHV))ov@",
"C@.-));;>]{{<<<1111LJO<<zJ]]HFu!ilC@",
"C@.6X);]]],{<<1155hOyU1<<{{,gQiHVWw@",
"v@.-i=;]]{{{<|15500UUh1<<{{,eHgFiBw@",
"v*.))=;>]]<<|155999Ky511<{{]>eiV6kr@",
"v@.)!=;],,{<<1509dAKMO11|<{]zuQiuow@",
"v@.)!=;>]{{<|1579dAd90y|<{{{]FQQQRv@",
"v@.))=;>]]{<<1579ddMb5L|<ff]];jVHXv@",
"v@.)==;]]{{<|115009bLhO1<JeJ]>=HHBs@",
"v@.-)=;]]]{{<|1505y0ELJ<EfVQ]>;=!kv ",
"v@.))!=;]]{{<<111OS51y|JEE{,>;=!)ov@",
"v@.)));;]]]{{<<<hS11<<<tJ]]];;!!)or@",
"v@sokkkjjjjnnnnpnppppppnnnnjjkkooDs ",
"v4rrrvrrrvrrvrvvvvvvvvrrrrrrrrrrsr4@",
"r                                   "};
