/* XPM */
static char * master_xpm[] = {
"64 64 90 1",
" 	c None",
".	c #000100",
"+	c #355F89",
"@	c #000000",
"#	c #26425F",
"$	c #2F4D6E",
"%	c #5D5E65",
"&	c #77757C",
"*	c #2B3343",
"=	c #474B61",
"-	c #82848C",
";	c #97959E",
">	c #182738",
",	c #383F55",
"'	c #81829D",
")	c #999BB8",
"!	c #60687C",
"~	c #DCE0F0",
"{	c #D5D8F2",
"]	c #C8CEF4",
"^	c #B7B8CF",
"/	c #9CA0AF",
"(	c #5E758B",
"_	c #9095C0",
":	c #C3CAFA",
"<	c #AEB6E5",
"[	c #B4B8E0",
"}	c #1E344A",
"|	c #6C7290",
"1	c #979FDA",
"2	c #7980AD",
"3	c #545A6C",
"4	c #A2ABE6",
"5	c #848ED2",
"6	c #848DC7",
"7	c #4D4F56",
"8	c #BAC2F9",
"9	c #6B719E",
"0	c #C6C3C8",
"a	c #747FC5",
"b	c #7A83BC",
"c	c #7B7D8C",
"d	c #6975BA",
"e	c #6771A8",
"f	c #4E5680",
"g	c #2B3047",
"h	c #131B28",
"i	c #34383A",
"j	c #626CAF",
"k	c #5A63A0",
"l	c #444B7A",
"m	c #20253A",
"n	c #B7B0B9",
"o	c #2D3151",
"p	c #AB97AF",
"q	c #D8BBD6",
"r	c #5E6685",
"s	c #4F5976",
"t	c #DDCFDA",
"u	c #D4BECE",
"v	c #C9A9CA",
"w	c #53578E",
"x	c #373D62",
"y	c #B1B9F0",
"z	c #6A5F75",
"A	c #BD97AB",
"B	c #AD87A6",
"C	c #616285",
"D	c #4C5689",
"E	c #CDADBF",
"F	c #A6769F",
"G	c #8B6A8B",
"H	c #44486F",
"I	c #586297",
"J	c #272843",
"K	c #765977",
"L	c #9E7895",
"M	c #5E4A68",
"N	c #BE95B9",
"O	c #B081AB",
"P	c #535679",
"Q	c #919CE1",
"R	c #976990",
"S	c #B195A6",
"T	c #897187",
"U	c #9C8192",
"V	c #191B2D",
"W	c #463E57",
"X	c #5D658F",
"Y	c #3B3C5A",
"                                                                ",
"                                                                ",
"                                                                ",
"   ..........................................................   ",
"   .++++++++++++++++++++++++++++++++++++++++++++++++++++++++@   ",
"   .++++++++++++++++++++++++++++++++++++++++++++++++++++++++@   ",
"   .++++++++++++++++++++++++++++++++++++++++++++++++++++++++@   ",
"   .++++++++++++++++++++++++++++++++++++++++++++++++++++++++@   ",
"   .++++++++++++++++++++++++++++++++++++++++++++++++++++++++@   ",
"   .++++++++++++++++++++++++++++++++++++++++++++++++++++++++@   ",
"   .++++++++++++++++++++++++++++++++++++++++++++++++++++++++@   ",
"   .++++++++++++++++++++++++++++++++++++++++++++++++++++++++@   ",
"   .++++++++++++++++++++++++++++++++++++++++++++++++++++++++@   ",
"   .++++++++++++++++++++##$++++++++%&+++++++++++++++++++++++@   ",
"   .++++++++++++++++++$***=++++++$-;-&--++++++++++++++++++++@   ",
"   .+++++++++++++++++$>,')'++++++!~~{]^/(+++++++++++++++++++@   ",
"   .+++++++++++++++$**!_]:<!+++++&~{]][<_!%!++++++++++++++++@   ",
"   .++++++++++++++#>}|):::[|+++++/{{{[<<12|!3+++++++++++++++@   ",
"   .+++++++++++++$>*_::]]]['3+++&~~]]<41561237++++++++++++++@   ",
"   .+++++++++++++}*_8:]:]][/%%+#-~~][41655569=,+++++++++++++@   ",
"   .++++++++++++,}|8::]]]{^/%%$}0~~{[16aaaaba$}$++++++++++++@   ",
"   .+++++++++++$>=_8::]]{{{/c7#>0~{[[46aaddaefg>$+++++++++++@   ",
"   .+++++++++++}}_88::]]~{^/;7hi0~{[<15aadddjklm}+++++++++++@   ",
"   .++++++++++$>|8888::]{^;c!7h;/0n/)65adddjjkko>$++++++++++@   ",
"   .++++++++++}}_88888:]/pqprs>;/tuvp'2bddjjjkwx>}++++++++++@   ",
"   .++++++++++}ry888y8<'quupz|7-0tqABBCjdjjjkkkDg}++++++++++@   ",
"   .++++++++++}|88y8y<'Eqqq)zr7&0tEABFGHjjjkkIDlJ}++++++++++@   ",
"   .+++++++++#g|y:yyy_pvvvvpKf7&tuABBLGMIjkjkwDDg>#+++++++++@   ",
"   .+++++++++},_y8y442vvvNOGKP7&tuEBLLGMljkkkwllo>}+++++++++@   ",
"   .+++++++++}s888y4Q9vvNOORKP%&0EALLRKKHekkkwwllg*+++++++++@   ",
"   .+++++++++#r<<y4QQ9NOOOFGM=7&EASLTKKMxkkIwwlHxm}+++++++++@   ",
"   .+++++++++}|yy44QQkNOOFRRKP%%0AULRKKMHkkkwDllxV}+++++++++@   ",
"   .+++++++++}|yy44Q5d2OOFRKMM%%nALTKKMWlkwkDDlxxV}+++++++++@   ",
"   .+++++++++}ry4QQQ5aDGGRRKWP%%UUUTKMWxkkIDwlHxo>*+++++++++@   ",
"   .+++++++++}s444Q555dwGGKKWP&&-UTKMWWwwkwwDlxxoV}+++++++++@   ",
"   .+++++++++}g24QQ55aajlHMWWP7&n&zzWWDIwkDwllxomh*+++++++++@   ",
"   .+++++++++$gC1Q555aaadklxHCh&n)TzX9kIwwDDlHxoV>#+++++++++@   ",
"   .++++++++++gC1155aaaddjkwfP>;^^_22e9IIwDllxooV}++++++++++@   ",
"   .++++++++++}P1Q55aaadjjkwPs>7^)_29eIDwDllxxoJV}++++++++++@   ",
"   .++++++++++}m966aaadadjIlHs}>c__299IDDDllxoJm>}++++++++++@   ",
"   .++++++++++$>=6bbaddjjjIlHs##&_229IIfllxxxoJh>#++++++++++@   ",
"   .+++++++++++ggKebjdjdjkwHH,$#3)299CXDDlxoJmVV}+++++++++++@   ",
"   .+++++++++++#>gPeejkjkkDxY,$$}|299IfllxxomVhh#+++++++++++@   ",
"   .++++++++++++#mW99IeIkklxg*++}r29XCffYoJmVhh}++++++++++++@   ",
"   .+++++++++++++}mPIwwDDwloJ>$+$=CXXPPYx}mmVh>+++++++++++++@   ",
"   .+++++++++++++#>JPfwllxooJV+++}sCsP=YgJVhhh#+++++++++++++@   ",
"   .++++++++++++++#>moxxxxommh+++#*P=,Y}gVVhh}++++++++++++++@   ",
"   .+++++++++++++++#>hVoxogmV$++++g,=,,gV.h>#+++++++++++++++@   ",
"   .+++++++++++++++++#hVVmom#++++++$,,mVV>#+++++++++++++++++@   ",
"   .++++++++++++++++++#}hVV#+++++++++,>>}#++++++++++++++++++@   ",
"   .++++++++++++++++++++#}+++++++++++++$++++++++++++++++++++@   ",
"   .++++++++++++++++++++++++++++++++++++++++++++++++++++++++@   ",
"   .++++++++++++++++++++++++++++++++++++++++++++++++++++++++@   ",
"   .++++++++++++++++++++++++++++++++++++++++++++++++++++++++@   ",
"   .++++++++++++++++++++++++++++++++++++++++++++++++++++++++@   ",
"   .++++++++++++++++++++++++++++++++++++++++++++++++++++++++@   ",
"   .++++++++++++++++++++++++++++++++++++++++++++++++++++++++@   ",
"   .++++++++++++++++++++++++++++++++++++++++++++++++++++++++@   ",
"   .++++++++++++++++++++++++++++++++++++++++++++++++++++++++@   ",
"   .++++++++++++++++++++++++++++++++++++++++++++++++++++++++@   ",
"   @@@@@@@@@@@@@@@@@@@@@@@@@@@@@@@@@@@@@@@@@@@@@@@@@@@@@@@@@@   ",
"                                                                ",
"                                                                ",
"                                                                "};
